<?xml version="1.0" encoding="UTF-8"?>
<svg version="1.1" viewBox="0 0 2048 1405" width="689" height="473" xmlns="http://www.w3.org/2000/svg">
<path transform="translate(345,582)" d="m0 0h46l25 3 26 6 20 6 19 8 19 10 12 8 13 10 14 12 14 15 11 15 8 13 13 25 7 19 6 24 4 30 1 26-1 23-4 28-6 24-7 19-8 16-8 15-11 16-12 14-17 17-16 12-18 11-17 9-21 8-25 7-27 5-22 2h-31l-28-3-20-4-24-7-19-7-16-8-14-8-14-10-10-8-23-23-12-16-9-15-10-19-9-25-6-25-4-28v-45l4-28 7-28 8-21 8-16 12-20 11-14 9-10 14-14 20-15 24-14 21-9 22-7 27-6zm5 88-25 5-16 6-15 8-11 8-10 9-5 5-8 9-10 16-8 18-6 20-3 19v34l3 19 6 20 8 18 9 14 11 13 7 7 13 10 16 9 15 6 15 4 14 2 22 1 23-2 21-5 17-7 16-10 11-9 13-13 10-14 8-15 6-17 5-21 1-8v-38l-3-18-6-20-5-12-7-13-9-12-9-10-10-9-15-10-16-8-12-4-25-5z" fill="#0973AF"/>
<path transform="translate(337,85)" d="m0 0h44l26 3 28 6 24 8 18 8 21 12 14 10 15 13 14 14 13 17 10 15 13 27 7 19 6 25 3 19 2 27-1 20-1 17-4 24-7 25-10 24-11 21-12 17-12 14-15 15-14 11-15 10-18 10-25 10-23 7-19 4-25 3-12 1h-22l-25-2-24-4-25-7-21-8-23-11-15-10-16-12-7-7-8-7-9-10-12-16-10-16-12-25-9-27-4-18-3-21v-54l3-23 6-24 9-24 12-25 11-16 10-13 11-12 14-13 15-11 20-12 23-11 24-8 29-6zm5 88-19 3-16 5-17 8-12 8-11 9-11 11-10 14-11 21-5 15-3 13-2 13-1 14v11l2 22 5 22 6 16 10 18 10 13 13 13 15 11 15 8 17 6 17 4 8 1h36l21-4 18-6 19-10 13-10 11-10 13-17 9-16 7-19 3-12 3-23v-26l-4-26-5-17-10-21-8-12-11-13-11-10-17-11-19-9-14-4-19-3z" fill="#E1232F"/>
<path transform="translate(848,95)" d="m0 0h89l3 1v177l5-3 18-18 7-8 8-8 7-8 7-7 7-8 9-9 7-8 7-7 7-8 9-9 7-8 14-15 8-8 7-8 14-15 7-7 7-8 8-7 4-1h118l-1 4-15 16-9 9-7 8-19 19-7 8-11 11-7 8-13 13-7 8-19 19-7 8-17 17-7 8-17 17-7 8-17 17-3 5 15 16 9 10 7 8 12 13 12 14 7 7 7 8 11 12 7 8 12 13 7 8 11 12 10 11 7 8 9 10 12 13 9 10 7 8 13 14 7 8 9 10 7 8v2h-132l-11-12-9-11-9-10-9-11-9-10-9-11-10-11-9-11-26-30-24-28-11-13-9-10-9-11-13-15-6-7-3-1-1 201-1 1h-94v-433z" fill="#E1222E"/>
<path transform="translate(1456,593)" d="m0 0h294l1 1v86l-2 1h-198v81h188l1 8v79l-1 1h-188v88h205l5 1 1 86-1 1h-305l-1-10v-389z" fill="#0A73AF"/>
<path transform="translate(1037,582)" d="m0 0h42l27 4 26 7 22 9 16 9 12 9 13 11 11 12 1 3-14 12-10 8-48 39-4-2-3-3v-2l-4-2-8-7-14-8-12-5-18-4-8-1h-25l-18 3-18 6-17 9-13 10-10 9-13 17-9 16-6 15-5 19-3 18-1 18 2 24 5 23 7 19 8 15 12 16 7 8 2 1v2l4 2 13 10 17 9 15 5 16 3h29l16-3 15-5 15-8 10-8 4-4h2l2-4 8-9 2-3 4 1 18 13 21 16 18 13 13 10 6 5-1 4-13 15-13 13-15 11-13 8-17 8-30 10-24 5-18 2h-29l-27-3-25-5-26-8-21-9-15-8-15-10-13-10-10-9-12-12-11-14-7-10-10-17-9-19-9-27-5-25-3-30v-23l3-33 5-23 6-19 6-15 10-20 14-21 11-13 9-10 12-11 16-12 20-12 23-11 25-8 28-6z" fill="#0973AF"/>
<path transform="translate(1901,503)" d="m0 0h51l13 4 9 7 5 8 2 7v9l-3 10-4 6-5 5-8 4-5 1 7 14 12 20 9 14v1h-23l-8-13-18-33-15-1v47h-19z" fill="#0974B1"/>
<path transform="translate(1927,461)" d="m0 0h21l17 3 16 6 12 7 14 11 7 7 10 14 8 16 4 13 2 11v27l-4 18-7 16-10 15-11 12-10 8-14 8-15 6-12 3-9 1h-19l-17-3-16-6-13-7-14-11-10-11-9-14-8-17-4-17-1-15 1-15 4-16 5-12 9-16 9-11 12-11 16-10 12-5 15-4zm5 9-19 3-14 5-12 7-13 10-10 11-8 13-6 14-3 11-2 15 1 15 4 18 7 16 8 11 9 10 11 9 14 8 15 5 11 2h25l14-3 13-5 13-8 14-12 9-11 7-12 6-18 2-10v-25l-5-19-8-17-9-12-9-9-13-9-14-7-13-4-14-2z" fill="#0B76B3"/>
<path transform="translate(147,1252)" d="m0 0 11 1 8 5 5 8 1 4v9l-3 7-5 6-9 4h-12l-8-4-6-7-2-6v-9l4-10 6-5 4-2z" fill="#0B85CB"/>
<path transform="translate(762,1252)" d="m0 0 12 2 6 4 5 9 1 8-2 9-4 6-8 5-3 1h-12l-7-3-7-8-2-6v-10l5-10 9-6z" fill="#0B85CB"/>
<path transform="translate(142,1170)" d="m0 0h15l8 4 6 9 1 12-3 8-5 6-9 4h-12l-8-4-6-7-2-7v-7l3-9 5-5z" fill="#E12834"/>
<path transform="translate(566,1171)" d="m0 0h12l4 10 5 12 4 2 2-5 7-19h12v40l-1 1h-6l-1-15v-9h-4l-1 5-7 18-4 1-5-8-4-11-4-2-2 20-5 1-1-1-1-16z" fill="#E3333E"/>
<path transform="translate(1921,519)" d="m0 0 26 1 8 3 4 5 1 2v8l-4 6-4 3-8 2h-23l-1-1v-26z" fill="#fff"/>
<path transform="translate(1056,1253)" d="m0 0h17l9 3 3 5v10l-5 5-3 2 9 15-1 2h-6l-4-4-7-12-5-2v17l-1 1h-6l-1-1v-40z" fill="#0C85CB"/>
<path transform="translate(1510,1253)" d="m0 0h18l8 3 3 4v11l-5 5-2 1 2 6 6 10-1 2h-6l-6-8-5-8-4-1-1 16-1 1h-6l-1-9v-29z" fill="#0B85CB"/>
<path transform="translate(619,1253)" d="m0 0h17l9 3 4 7-1 7-5 6-2 1 2 6 6 10v2h-6l-5-5-7-11-5-2-1 17-5 1-2-1v-40z" fill="#0C85CB"/>
<path transform="translate(811,1253)" d="m0 0h18l8 3 3 4 1 8-3 6-5 4 7 13 1 4h-6l-4-4-7-12-5-1-2 17h-6l-1-15v-25z" fill="#18c"/>
<path transform="translate(1216,1253)" d="m0 0h18l8 3 3 3 1 3v7l-3 5-5 3 2 5 6 10v3h-6l-5-5-6-10v-2l-5-1-1 18h-7z" fill="#0E86CB"/>
<path transform="translate(447,1253)" d="m0 0h9l4 4 10 16 4 6 2 1 1-26 2-1 6 1v40l-2 1h-6l-5-5-8-11-8-13-2 29h-7z" fill="#1389CD"/>
<path transform="translate(939,1253)" d="m0 0 10 1 9 14 5 8 4 1 1-23h8v40l-1 1h-7l-5-5-11-16-5-6h-1l-1 26-1 1h-5l-1-1v-40z" fill="#1088CD"/>
<path transform="translate(198,1253)" d="m0 0h7l5 5 9 13 7 9 1-26h8v40l-1 1h-7l-5-5-14-20-4-3v27l-1 1h-5l-1-1v-40z" fill="#0D86CC"/>
<path transform="translate(1331,1253)" d="m0 0h6l5 4 10 15 6 8 2-27h6l1 1v40l-1 1h-7l-5-5-13-19-5-4v27l-5 1-2-1v-39z" fill="#1088CD"/>
<path transform="translate(197,1171)" d="m0 0h9l4 4 14 21 2 1 1-25 1-1h6l1 1v39l-1 1h-7l-5-5-13-19-5-4v27l-1 1h-5l-1-1z" fill="#E43944"/>
<path transform="translate(813,1171)" d="m0 0h10l7 10 7 11 4 5 2 1 1-27h6l1 1v39l-1 1h-7l-5-5-16-24-2-1v30h-6l-1-1z" fill="#E22E39"/>
<path transform="translate(768,1170)" d="m0 0 4 1 7 14 10 24v3h-6l-3-3-2-5h-19l-4 8h-6l1-6 11-26 5-9z" fill="#E12934"/>
<path transform="translate(655,1170)" d="m0 0 4 1 8 16 9 22v3h-6l-5-8h-18l-3 7-2 1h-6l1-5 13-31 3-5z" fill="#E12934"/>
<path transform="translate(521,1170)" d="m0 0 4 1 8 15 9 22v4h-6l-3-4-2-4h-18l-3 7-2 1h-6l1-5 13-30 4-6z" fill="#E12732"/>
<path transform="translate(1713,1253)" d="m0 0h17l9 3 3 4 1 8-3 6-4 3-15 2-1 16h-7z" fill="#0B85CB"/>
<path transform="translate(1166,1253)" d="m0 0h17l7 2 5 6 1 6-3 7-5 3-4 1h-11v16l-1 1h-6z" fill="#0C85CB"/>
<path transform="translate(1448,1253)" d="m0 0h7l1 1 1 29 2 4 3 1h7l4-3 1-31 1-1h6l2 1-1 31-4 7-8 4h-10l-6-3-5-6-1-4z" fill="#168ACD"/>
<path transform="translate(145,1176)" d="m0 0h10l6 4 3 6v11l-4 6-4 3-3 1h-7l-6-3-4-5-2-6 1-7 3-5 5-4z" fill="#fff"/>
<path transform="translate(1395,1253)" d="m0 0h26l1 1v5l-1 1h-19v11h19v6h-19l1 11h19l2 6-2 1h-27l-1-1v-40z" fill="#1088CD"/>
<path transform="translate(1621,1253)" d="m0 0 3 1v16h19l1-16h7v40l-1 1h-5l-1-1-1-16-19-1v17l-1 1h-6v-41z" fill="#1088CD"/>
<path transform="translate(393,1253)" d="m0 0h27v7h-20v11h19v6h-19v11h11l10 1 1 5-2 1h-27l-1-1v-40z" fill="#0B85CC"/>
<path transform="translate(262,1253)" d="m0 0h27l1 6-1 1h-19v11h18l1 5-1 1h-18v12l12-1h8l1 1v5l-1 1h-28z" fill="#0A84CA"/>
<path transform="translate(565,1253)" d="m0 0h26l1 1v5l-1 1-19 1v9l19 1v6l-19 1-1 10h20l2 1v5l-1 1h-28v-41z" fill="#0C85CA"/>
<path transform="translate(147,1259)" d="m0 0 9 1 6 5 2 5v9l-4 6-5 4-8 1-8-4-4-7v-9l3-6 5-4z" fill="#fff"/>
<path transform="translate(762,1259)" d="m0 0 8 1 6 5 2 6-1 10-5 6-7 3-7-1-6-4-3-6v-9l3-6 5-4z" fill="#fff"/>
<path transform="translate(1276,1253)" d="m0 0h26l1 1v5l-1 1h-20l1 10 19 1v6h-20v11l21 1 1 5-2 1h-26l-1-1v-40z" fill="#0C85CA"/>
<path transform="translate(884,1253)" d="m0 0h26l1 1v6h-20v11h19l1 5-1 1h-19v11h12l9 1 1 5-2 1h-27z" fill="#0C85CB"/>
<path transform="translate(363,1170)" d="m0 0 5 1-6 7-11 11 2 4 15 16 1 3h-8l-8-7-7-8-4-3-1 18h-6l-1-1v-40h7v16l8-7 11-9z" fill="#E22C38"/>
<path transform="translate(1112,1253)" d="m0 0h26l1 1v6h-20v11h19v6h-19l1 11h17l3 1 1 5-2 1h-27z" fill="#0E86CC"/>
<path transform="translate(262,1171)" d="m0 0h27l1 5-1 1h-20l1 10 18 1 1 5-1 1h-19l1 11h20l1 6-1 1h-28z" fill="#E22935"/>
<path transform="translate(393,1171)" d="m0 0h27v6h-20v11h19v6h-19l1 11h19l1 1v6h-28z" fill="#E12632"/>
<path transform="translate(1572,1253)" d="m0 0h14l3 2-1 5-4 1h-12v5l4 3 10 4 5 6v8l-4 6-6 3h-11l-6-3-1-4 2-2 6 1 7 1 4-1v-6l-6-4-9-4-4-6 1-8 4-5z" fill="#1087CC"/>
<path transform="translate(345,1253)" d="m0 0h16l6 4-1 5-15-2-7 3-4 8v7l3 6 5 4 7 1 7-3 3-1 3 2-1 5-5 3-3 1h-12l-8-4-6-8-1-3v-13l4-8 7-6z" fill="#0F87CC"/>
<path transform="translate(459,1170)" d="m0 0h14l6 3 1 4-1 2-6-1-10-1-6 3-3 5-1 3v7l3 6 4 4 9 1 9-4 3 2-1 5-8 4h-12l-8-4-6-8-2-6v-7l4-10 7-6z" fill="#E22F3A"/>
<path transform="translate(692,1253)" d="m0 0h26l1 5-1 2h-19v11h17l1 1v6h-18v16l-1 1h-6l-1-1v-40z" fill="#0C85CA"/>
<path transform="translate(1e3 1253)" d="m0 0h31l1 1v5l-1 1h-11v16l-1 18-1 1h-5l-1-1-1-33-11-1-1-1v-5z" fill="#1289CD"/>
<path transform="translate(509,1253)" d="m0 0h31l1 5-3 2h-10v35h-7l-1-34-11-1-1-1v-5z" fill="#0B85CC"/>
<path transform="translate(1867,622)" d="m0 0 7 6 11 9 14 8 15 5 11 2h25l14-3 3 1-6 4-9 3-8 1-2 2-6 1-3-1v-2l-11 1-16-5-9-3v-2l-5-1-3-2v-2l-4-1-5-5-1-4-4-2-8-8z" fill="#0984CA"/>
<path transform="translate(697,1171)" d="m0 0h32v5l-1 1h-12v35h-6l-1-1-1-28v-6h-11l-1-5z" fill="#E22D39"/>
<path transform="translate(1360,1253)" d="m0 0h6l1 1v40l-1 1h-7l-5-5-1-11-4-5-3-7-1-2 4 2 7 11 2 2z" fill="#0F87CC"/>
<path transform="translate(198,1253)" d="m0 0h7l5 5 9 13-1 3-4-2-3-5h-3v3l-4-3v27l-1 1h-5l-1-1v-40z" fill="#0E86CC"/>
<path transform="translate(627,1260)" d="m0 0h7l6 2v7l-1 2h-2v2l6 3-2 1 2 6 6 10v2h-6l-5-5-7-11-2-2 4-4-7-2v-10z" fill="#1389CC"/>
<path transform="translate(939,1253)" d="m0 0 10 1v5l-4 1-3-1v2l3 1v32l-1 1h-5l-1-1v-40z" fill="#0A78B7"/>
<path transform="translate(1679,1253)" d="m0 0h5l2 4v16l-1 22h-6l-1-1v-40z" fill="#168BCE"/>
<path transform="translate(137,1256)" d="m0 0h2v8l-3 6v13 2l2 4h2l-1 4-4-1-6-7-2-6v-9l4-10 3-3z" fill="#0B77B4"/>
<path transform="translate(447,1254)" d="m0 0 3 1 1 5 3 2v33h-7z" fill="#0973AF"/>
<path transform="translate(1337,1254)" d="m0 0 4 2 5 7 1 4 5 10 2 2v6l1 4-5-5-9-13-3-6v-3h2l-2-5-4-2z" fill="#0975B3"/>
<path transform="translate(826,1273)" d="m0 0h4v2h6l-3 3 7 13 1 4h-6l-4-4-7-12-3-2 3-1z" fill="#168BCE"/>
<path transform="translate(752,1256)" d="m0 0v3l-5 8-2 5 1 9 4 5 1 5h2v2l-4-1-6-7-2-6v-10l5-10 2-2z" fill="#0F78B4"/>
<path transform="translate(819,1260)" d="m0 0h8l5 2 1 1v5l-5 3h-9l-1-1v-9z" fill="#fff"/>
<path transform="translate(1518,1260)" d="m0 0h9l4 2 1 5-2 3-3 1h-9l-1-1v-9z" fill="#fff"/>
<path transform="translate(1224,1260)" d="m0 0h9l4 2 1 5-2 3-3 1h-9l-1-2v-8z" fill="#fff"/>
<path transform="translate(1063,1260)" d="m0 0h9l5 3v6l-4 2h-10z" fill="#fff"/>
<path transform="translate(627,1260)" d="m0 0h7l6 2v7l-4 2h-10v-10z" fill="#fff"/>
<path transform="translate(1721,1260)" d="m0 0h10l3 2v7l-2 2-10 1-1-1z" fill="#fff"/>
<path transform="translate(1174,1260)" d="m0 0h9l4 3v6l-3 2h-10l-1-2v-8z" fill="#fff"/>
<path transform="translate(950,1261)" d="m0 0 5 5 1 5 3 1 3 11v3h-2l-8-12-4-7-1-3z" fill="#0B75B1"/>
<path transform="translate(447,1269)" d="m0 0h1l1 8 1 2 3-1 1 8v9h-7z" fill="#0C86CC"/>
<path transform="translate(1952,462)" d="m0 0 9 1 18 6 8 4-4 3-10-3v-2l-10-3-11-5z" fill="#0E87CC"/>
<path transform="translate(768,1180)" d="m0 0 3 3 4 13h-13z" fill="#fff"/>
<path transform="translate(655,1181)" d="m0 0h2l5 14v2l-13-1 5-14z" fill="#fff"/>
<path transform="translate(521,1181)" d="m0 0h2l5 15h-12l1-5z" fill="#fff"/>
<path transform="translate(458,1263)" d="m0 0 4 2 4 9v4l3 1v5h2l2 6-5-5-11-17z" fill="#0E79B5"/>
<path transform="translate(828,1270)" d="m0 0h6v2h2v3l-4 1-2-1v-2l-4 1-2 3h-6l-2-5 1-1z" fill="#0977B6"/>
<path transform="translate(1510,1255)" d="m0 0h2v38l3 1h-5l-1-8v-29z" fill="#3E93C3"/>
<path transform="translate(1959,538)" d="m0 0 1 4-5 6-12 3h-22v-3h23l10-3 4-5z" fill="#0A85CC"/>
<path transform="translate(208,1265)" d="m0 0 4 2 2 5 3 1 3 6 1 8-4-4-8-12-2-5z" fill="#0974B2"/>
<path transform="translate(1112,1253)" d="m0 0h2l1 3-1 36h-2z" fill="#097CBD"/>
<path transform="translate(1737,1263)" d="m0 0h1l1 10-1 3-2 1h-8l1-2-3-2 4-1h2v-2l3-1z" fill="#0F78B3"/>
<path transform="translate(1239,1285)" d="m0 0 4 2 3 5v3h-6l-5-5-1-4z" fill="#0975B3"/>
<path transform="translate(1395,1254)" d="m0 0 3 3-1 14v21l-2-1z" fill="#0973AF"/>
<path transform="translate(1056,1254)" d="m0 0 3 1-1 18v20l2 1h-3l-1-2z" fill="#0973AF"/>
<path transform="translate(1928,517)" d="m0 0h12l12 3 1 2-6-1-23-1-3-2z" fill="#0A85CC"/>
<path transform="translate(948,1256)" d="m0 0 3 1 5 8-1 2-5-5h-2l1 7-4-1-1-6-2-1v-2h7z" fill="#2592D1"/>
<path transform="translate(944,1267)" d="m0 0h1v27l-4-5v-9l1-3h2z" fill="#0A85CC"/>
<path transform="translate(1737,1257)" d="m0 0 5 3 1 8-3 6-2 1v-15z" fill="#1280BF"/>
<path transform="translate(1875,481)" d="m0 0 2 1-19 19-2-1 12-13z" fill="#1887C6"/>
<path transform="translate(1714,1285)" d="m0 0 4 4 2 6h-7v-8z" fill="#187DB6"/>
<path transform="translate(1867,622)" d="m0 0 7 6 11 9 3 2-1 2-8-5v-2l-4-2-8-8z" fill="#0A85CC"/>
<path transform="translate(1217,1254)" d="m0 0 3 1-1 3-1 34h-1z" fill="#0973AF"/>
<path transform="translate(776,1287)" d="m0 0h4v3l-6 4h-6l4-4z" fill="#0975B2"/>
<path transform="translate(1345,1265)" d="m0 0 4 2 7 12-5-2-3-6z" fill="#2592D1"/>
<path transform="translate(1713,1254)" d="m0 0h4l-1 12-2 3-1-7z" fill="#0973AF"/>
<path transform="translate(163,1287)" d="m0 0 2 2-4 5h-8l5-4z" fill="#0974B1"/>
<path transform="translate(626,1271)" d="m0 0 8 1-3 5-5-2z" fill="#0973AF"/>
<path transform="translate(831,1270)" d="m0 0h3v2h2v3l-4 1-2-1v-2l-2-1z" fill="#0973AF"/>
<path transform="translate(776,1264)" d="m0 0 2 4h2v11l-2-1z" fill="#0976B4"/>
<path transform="translate(573,1180)" d="m0 0 3 4 2 7h-4l-1-3z" fill="#fff"/>
<path transform="translate(1244,1290)" d="m0 0 2 2v3h-6l-3-3z" fill="#1388CB"/>
<path transform="translate(636,1283)" d="m0 0h2l4 6v4h-2l-4-6z" fill="#0975B3"/>
<path transform="translate(448,1289)" d="m0 0 6 1v4h-6z" fill="#0973AF"/>
<path transform="translate(162,1265)" d="m0 0 3 1 1 13-2 1z" fill="#0974B1"/>
</svg>
